<?xml version="1.0" encoding="UTF-8" standalone="no"?>
<!-- Created with Inkscape (http://www.inkscape.org/) -->

<svg
   version="1.1"
   id="svg2"
   width="837"
   height="677"
   viewBox="0 0 837 677"
   sodipodi:docname="logo_tandemtwister.png"
   inkscape:version="1.2.2 (b0a8486541, 2022-12-01)"
   inkscape:dataloss="true"
   xmlns:inkscape="http://www.inkscape.org/namespaces/inkscape"
   xmlns:sodipodi="http://sodipodi.sourceforge.net/DTD/sodipodi-0.dtd"
   xmlns="http://www.w3.org/2000/svg"
   xmlns:svg="http://www.w3.org/2000/svg">
  <defs
     id="defs6" />
  <sodipodi:namedview
     id="namedview4"
     pagecolor="#ffffff"
     bordercolor="#000000"
     borderopacity="0.25"
     inkscape:showpageshadow="2"
     inkscape:pageopacity="0.0"
     inkscape:pagecheckerboard="0"
     inkscape:deskcolor="#d1d1d1"
     showgrid="false"
     inkscape:zoom="0.92335268"
     inkscape:cx="236.63764"
     inkscape:cy="281.04104"
     inkscape:window-width="1854"
     inkscape:window-height="1131"
     inkscape:window-x="0"
     inkscape:window-y="0"
     inkscape:window-maximized="1"
     inkscape:current-layer="g8" />
  <g
     inkscape:groupmode="layer"
     inkscape:label="Image"
     id="g8">
    <g
       id="g734"
       transform="translate(-24.03774,-40.621334)">
      <path
         style="fill:#000000"
         d="m 133.15716,658.26326 c -5.49576,-0.49015 -5.72497,0.53067 6.0094,-26.76326 11.61071,-27.00631 10.58162,-25.5 17.42136,-25.5 h 5.54182 l 3.8034,8.25 c 21.50042,46.63676 20.676,43.43484 11.31686,43.95319 -7.82578,0.43342 -8.81075,-0.0482 -9.69071,-4.73882 L 166.90937,650 h -9.99022 -9.99022 L 145,654.5 c -2.09005,4.8759 -1.4934,4.6863 -11.84284,3.76326 z M 143.5,651.8898 l 2,-4.03772 11.41298,-0.17604 11.41299,-0.17604 1.42035,4.25 c 1.41404,4.23114 1.44217,4.25 6.33701,4.25 6.57526,0 7.7294,4.03184 -10.10397,-35.29724 l -5.34934,-11.79723 -4.55223,0.29723 -4.55223,0.29724 -9.16738,21 c -11.5801,26.52687 -11.36169,25.51007 -5.46951,25.46376 4.3773,-0.0344 4.71283,-0.24115 6.61133,-4.07396 z m 4.5,-12.85433 c 0,-11.73469 8.70992,-20.30155 12.36345,-12.16039 4.28476,9.54771 4.49946,12.12307 1.01155,12.13361 -1.58125,0.005 -5.2375,0.29246 -8.125,0.63929 -3.85599,0.46316 -5.25,0.30053 -5.25,-0.61251 z m 13,-2.90212 c 0,-2.13913 -4.38695,-11.14415 -5.08138,-10.43045 -0.42657,0.4384 -1.7012,3.1596 -2.83251,6.0471 l -2.05693,5.25 h 4.98541 C 158.75657,637 161,636.61001 161,636.13335 Z M 198,658.07841 192.5,657.5 192.18605,631.75 191.87211,606 h 4.6238 c 5.33763,0 9.4255,3.34305 22.6191,18.49782 8.95289,10.2837 8.88499,10.32649 8.88499,-5.5989 v -12.98305 l 7.75,0.29207 7.75,0.29206 -0.24127,4 c -0.1327,2.2 -0.5827,13.9 -1,26 l -0.75873,22 -5,-0.23675 c -7.35759,-0.34838 -8.74283,-0.90581 -11.5,-4.62763 -1.375,-1.85608 -6.1,-7.54827 -10.5,-12.64933 l -8,-9.27465 -0.5,13.31322 c -0.28953,7.70913 -0.92094,13.3803 -1.5,13.47259 -0.55,0.0877 -3.475,-0.10092 -6.5,-0.41904 z M 203,642 c 0,-14.74209 0.2765,-15.51354 4.39068,-12.25 2.26789,1.79898 16.69263,17.91478 20.16407,22.52796 3.17928,4.22492 11.42144,5.0023 11.50999,1.08558 0.0356,-1.57495 0.41368,-12.08854 0.84017,-23.36354 0.84704,-22.3934 0.94588,-21.95938 -5.00669,-21.98469 L 231.29643,608 l -0.64222,8.25 c -0.35322,4.5375 -0.64492,11.07662 -0.64822,14.53138 -0.007,7.26348 -2.107,9.47068 -4.9337,5.18536 -1.66951,-2.53101 -13.01605,-15.57698 -19.81841,-22.78674 -3.46251,-3.66987 -4.57839,-4.27183 -7.41489,-4 l -3.33899,0.32 0.0312,6.75 c 0.0172,3.7125 0.12969,14.175 0.25,23.25 L 195,656 h 4 4 z m 53.61133,16.18137 -3.88867,-0.31863 0.63732,-21.18137 C 253.71051,625.03162 254.33542,613.475 254.74866,611 l 0.75134,-4.5 12.278,-0.281 c 34.38222,-0.7869 46.27914,22.12076 23.54675,45.33953 -5.45047,5.56708 -18.11352,7.98301 -34.71342,6.62284 z m 27.61859,-4.60527 c 22.26668,-9.99266 19.23023,-40.33024 -4.44933,-44.45385 -18.42407,-3.20842 -21.90775,-1.93672 -22.94991,8.37775 -0.38899,3.85 -1.01567,8.88556 -1.39261,11.19013 -0.37694,2.30458 -0.35613,9.45906 0.0462,15.89885 l 0.73159,11.70872 12.37197,-0.62704 c 7.41273,-0.3757 13.68277,-1.21529 15.64205,-2.09456 z M 266,631.56739 c 0,-16.78663 -0.43137,-16.18681 10.52531,-14.63516 21.14339,2.99428 16.4284,28.95502 -5.27531,29.04581 L 266,646 Z m 17.69254,6.89717 c 7.68205,-8.81851 3.66366,-17.83087 -8.51807,-19.10411 L 269,618.71509 v 12.47508 12.47507 l 5.75,-0.76792 c 4.91324,-0.65618 6.21459,-1.30125 8.94254,-4.43276 z m 79.72288,19.17561 c -0.32395,-0.84418 -0.0494,-6.62107 0.61,-12.83752 0.65945,-6.21646 1.036,-17.37765 0.83679,-24.80265 L 364.5,606.5 l 7.48577,0.15022 c 5.94104,0.11923 7.69507,0.50803 8.5,1.88414 10.28513,17.58334 18.43004,23.55369 22.12181,16.21564 1.4527,-2.8875 4.43657,-8.2875 6.63081,-12 l 3.98954,-6.75 7.13604,-9.2e-4 7.13603,-9.2e-4 -0.31097,24.75092 c -0.35015,27.86854 0.17123,25.95605 -7.31596,26.83602 l -5.6,0.65817 -0.72663,-11.21131 -0.72664,-11.2113 -2.46685,2.31749 c -1.35677,1.27462 -3.7656,4.58745 -5.35295,7.36185 -4.10188,7.16934 -7.25509,9.90378 -10.48554,9.09299 -1.42794,-0.35839 -2.33323,-1.0772 -2.01176,-1.59735 0.32147,-0.52016 -1.2066,-2.88884 -3.39571,-5.26375 -2.18912,-2.3749 -4.94306,-6.89147 -6.11989,-10.03682 -2.88158,-7.7017 -3.60108,-6.68104 -4.44255,6.30211 -0.68931,10.63542 -0.81314,11.08982 -3.38004,12.4031 -4.56868,2.33744 -11.06486,3.02299 -11.74909,1.23989 z m 9.1167,-3.08914 3.46788,-1.44898 0.0876,-7.30102 c 0.2301,-19.17649 2.61542,-22.01982 9.10673,-10.85534 9.90341,17.03298 11.88663,18.03239 17.7074,8.92328 C 414.92353,625.0557 416,624.92482 416,642.27643 v 13.27642 l 3.94241,-0.37597 c 5.16876,-0.49292 5.27674,-1.07241 4.87726,-26.17468 -0.3108,-19.52958 -0.37875,-20.10178 -2.44884,-20.62264 -6.86552,-1.72745 -8.84841,0.3779 -18.37083,19.50543 -3.11742,6.26192 -7,9.65363 -7,6.11501 0,-0.55 -0.675,-1 -1.5,-1 -0.825,0 -1.50804,-0.3375 -1.51787,-0.75 -0.01,-0.4125 -3.38482,-5.0217 -7.5,-10.24267 C 382.36696,616.78636 379,611.98615 379,611.34019 379,610.36661 371.19906,608 367.98988,608 c -0.51101,0 -0.85438,6.04278 -0.78131,13.75 0.0717,7.5625 -0.21945,18.3625 -0.64698,24 -0.8706,11.47983 -0.77566,11.61977 5.97053,8.80103 z m 218.40948,3.50074 c -12.90451,-3.91575 -15.15397,-10.82546 -5.19572,-15.95979 1.86314,-0.9606 2.72088,-0.80676 5.03306,0.9027 5.62369,4.15778 13.22106,3.57314 13.22106,-1.01738 0,-1.32111 -1.34868,-2.09521 -5.25,-3.01332 -19.50361,-4.58986 -24.61619,-22.58696 -8.74588,-30.78695 7.26102,-3.75167 27.99588,-0.0162 27.99588,5.04353 0,4.98343 -8.70261,10.87052 -11.5,7.77944 -2.29122,-2.53177 -9.6085,-2.77912 -11.58981,-0.39179 -1.68884,2.03493 0.60321,3.94262 6.55891,5.45902 17.6459,4.49289 22.25822,14.71341 12.03157,26.66096 -4.70646,5.49843 -14.42488,7.79183 -22.55907,5.32358 z m 16.01265,-3.32324 c 13.90204,-7.03517 11.3773,-20.96382 -4.66309,-25.72568 C 594.86994,626.79973 591,624.28132 591,621.65499 c 0,-4.70335 11.24024,-7.33216 16.07307,-3.75909 l 2.95409,2.18405 2.45482,-2.78997 c 3.54477,-4.02875 1.43727,-5.95498 -9.09877,-8.31615 -21.07614,-4.72326 -27.45411,20.82532 -6.62875,26.55315 8.94437,2.46007 10.24554,3.18766 10.24554,5.72907 0,6.8344 -7.12998,9.41907 -15.10102,5.47425 l -5.05387,-2.50114 -2.64006,2.27089 c -6.57085,5.652 13.49696,12.91062 22.7492,8.22848 z m -504.28758,2.6048 C 102.3,656.96667 102,648.21138 102,637.87714 V 619.08762 L 94.75,618.79381 87.5,618.5 v -6.5 -6.5 l 22,0.0158 22,0.0158 v 6.98425 6.98424 l -7.78945,0.29277 -7.78946,0.29278 0.081,17.70722 c 0.0446,9.73898 0.0623,18.26973 0.0395,18.95723 -0.0443,1.33293 -12.0995,1.85871 -13.37487,0.58333 z M 113.88714,636.75 113.5,617.5 l 7.75,-0.29206 7.75,-0.29207 V 612.45794 608 H 109.6135 90.226999 l -0.496396,3.25 c -0.756473,4.95277 0.758599,6.07409 7.394044,5.47241 C 105.14266,615.99537 105,615.62443 105,637.2 V 656 h 4.63714 4.63713 z m 199.04582,18.12938 C 312.89609,653.02072 312.85321,641.375 312.83766,629 l -0.0283,-22.5 20.5953,-0.27029 20.59531,-0.27029 V 612.47971 619 h -14 -14 v 2.98095 c 0,3.65925 0.93428,3.93444 14.5,4.27097 l 10,0.24808 -0.30101,5.46768 c -0.37443,6.80124 0.92813,6.11809 -12.09153,6.34162 l -11.10727,0.1907 -10e-5,3.22097 -9e-5,3.22098 13.25,0.27902 13.25,0.27903 -0.35133,5.5 c -0.44837,7.019 1.73616,6.29887 -20.66486,6.81224 L 313,658.25875 312.933,654.87938 Z M 336.125,655 H 351 v -3.97097 -3.97098 L 337.75,646.77903 324.5,646.5 v -5 -5 l 11.5,-0.5 11.5,-0.5 0.30844,-3.71776 0.30845,-3.71776 -11.80845,-0.28224 L 324.5,627.5 324.19774,622.25 323.89548,617 H 337.44774 351 v -4 -4 l -15.75,-0.0136 c -8.6625,-0.008 -16.7625,-0.285 -18,-0.61664 L 315,607.76679 v 24.24163 24.24163 l 3.125,-0.625 c 1.71875,-0.34375 9.81875,-0.625 18,-0.625 z m 116.29527,2.08693 c -0.23115,-0.23114 -0.42716,-8.33276 -0.43558,-18.0036 -0.0184,-21.09432 0.22023,-20.53414 -8.44985,-19.83819 -7.83506,0.62892 -8.83758,-0.54036 -8.24893,-9.62107 0.30853,-4.75946 0.50585,-5.10581 2.77313,-4.86742 1.96995,0.20713 12.93178,0.53245 41.23868,1.22387 0.43874,0.0107 0.66374,2.83198 0.5,6.26948 l -0.29772,6.25 -7.38305,0.2965 -7.38306,0.29649 0.38306,18.70351 0.38305,18.7035 -6.32973,0.5036 c -3.48136,0.27698 -6.51886,0.31448 -6.75,0.0833 z M 463,635.5 l 0.5,-19 6.62129,0.34283 6.6213,0.34283 0.69845,-3.72308 c 0.99418,-5.29941 1.03486,-5.28804 -20.19206,-5.64177 L 437.99796,607.5 l 0.001,4.81055 10e-4,4.81055 6.75,-0.60558 c 9.84696,-0.88342 9.46,-1.68468 9.61555,19.91013 l 0.13445,18.66479 4,-0.29522 4,-0.29522 0.5,-19 z m 33.56978,21.37719 C 496.314,656.11974 494.73467,650.775 493.06018,645 c -1.6745,-5.775 -4.61882,-15.675 -6.54293,-22 -1.92411,-6.325 -3.50263,-13.02062 -3.50782,-14.87917 l -0.009,-3.37916 6.06752,0.68646 c 7.99834,0.90491 8.93248,1.34338 8.93248,4.19282 0,3.41014 4.96022,23.68658 6.07392,24.82905 0.57636,0.59124 0.93213,0.2136 0.94209,-1 0.0513,-6.24431 8.7702,-26.95316 11.48473,-27.27808 6.85546,-0.82058 7.97632,1.07843 14.94948,25.32808 0.52914,1.84013 2.80726,-4.31795 5.44068,-14.70695 L 539.5,606.5 l 6.38917,-0.30133 6.38917,-0.30133 -0.61562,3.30133 c -0.3386,1.81573 -2.24233,8.47633 -4.23052,14.80133 -4.98954,15.87318 -7.33412,24.58389 -7.76884,28.86328 -0.36511,3.59417 -0.43638,3.64695 -6.0917,4.51142 -7.36597,1.12595 -6.40145,2.40351 -13.31941,-17.64251 -2.46907,-7.15459 -3.6903,-5.70435 -7.80429,9.26781 -2.24209,8.1597 -1.78441,7.73302 -9.18054,8.55865 -4.86782,0.54339 -6.33441,0.39417 -6.69764,-0.68146 z M 510.18518,647 c 3.7091,-14.45649 9.03598,-22.85655 10.30491,-16.25 0.29051,1.5125 1.46688,5.45 2.61415,8.75 1.14727,3.3 2.80988,8.1375 3.69469,10.75 1.57582,4.65274 1.69437,4.75 5.78969,4.75 h 4.18093 l 0.71009,-5.68334 c 0.39055,-3.12584 3.1424,-13.13508 6.11522,-22.24274 C 550.02661,607.36937 549.88208,609 545.19683,609 h -3.80318 l -2.33618,9.75 c -3.99699,16.6814 -9.03544,25.22865 -9.82835,16.67288 -3.13025,-33.7765 -13.20679,-32.74583 -22.75158,2.32712 -1.85325,6.80989 -4.36745,2.38624 -8.49829,-14.95245 -1.79549,-7.53635 -3.53784,-13.65241 -3.87189,-13.59124 -0.33405,0.0612 -1.28236,-0.14874 -2.10736,-0.46645 -4.00697,-1.5431 -7.05105,-1.47643 -6.57794,0.14405 0.25951,0.88885 1.63743,6.06442 3.06205,11.50127 1.42461,5.43684 2.96818,10.61184 3.43014,11.5 0.46196,0.88815 2.03859,5.88982 3.50362,11.11482 1.46504,5.225 2.86576,10.08734 3.11271,10.80521 0.30439,0.8848 1.94376,1.2069 5.08967,1 L 508.2609,654.5 Z m 48.25403,10.10588 C 558.19765,656.86431 558,645.24695 558,631.28952 v -25.37714 l 7.02771,0.29381 7.02771,0.29381 0.18431,25.4505 0.18432,25.4505 -6.77281,0.072 c -3.72505,0.0396 -6.97046,-0.12561 -7.21203,-0.36717 z M 570,631.62284 v -23.37717 l -4.75,0.51022 c -2.6125,0.28062 -4.75,0.56284 -4.75,0.62716 0,0.0643 0.14343,10.35445 0.31874,22.86695 L 561.13748,655 H 565.56874 570 Z m 67.70896,25.75279 C 637.31903,656.9857 637,649.59792 637,640.95833 c 0,-22.51435 0.25114,-21.8067 -7.86639,-22.16529 L 622.5,618.5 622.20228,612.25 621.90457,606 h 21.5934 21.59341 l -0.29569,6.75 -0.29569,6.75 -6.72834,-0.27027 -6.72833,-0.27027 -0.27167,19.27027 L 650.5,657.5 l -6.04104,0.29229 c -3.32257,0.16076 -6.36007,-0.0267 -6.75,-0.41666 z m 10.62817,-6.8186 c 0.33494,-2.44364 0.32605,-10.99364 -0.0198,-19 L 647.68865,617 H 655.34433 663 v -3.92058 -3.92058 l -18.75,-0.33828 c -22.10738,-0.39886 -19.22357,-0.95676 -19.51198,3.77476 L 624.5,616.5 l 7,0.5 7,0.5 0.6193,7.5 c 0.34061,4.125 0.67811,12.5625 0.75,18.75 L 640,655 h 3.86408 c 3.81425,0 3.87192,-0.0573 4.47305,-4.44297 z m 23.4962,6.45042 c -0.18333,-0.5459 -0.20573,-12.25578 -0.0498,-26.02194 l 0.28357,-25.02939 18.71643,0.27194 L 709.5,606.5 v 6 6 l -12.25,0.28078 -12.25,0.28078 V 622.53078 626 h 10.5 10.5 v 6 c 0,6.86611 1.14339,6.32667 -12.75,6.01523 L 685,637.8303 v 3.69152 3.69151 l 11.75,-0.35666 11.75,-0.35667 0.88046,5.18884 C 710.8465,658.32872 711.58871,658 690.61472,658 c -11.31584,0 -18.57692,-0.38373 -18.78139,-0.99255 z M 693.625,655 H 707 v -4 -4 H 695.10699 C 681.87926,647 682,647.06524 682,639.91821 V 636 h 11 11 v -4 -4 h -11.0499 -11.04991 l 0.29991,-5.75 0.2999,-5.75 12.25,-0.28078 12.25,-0.28078 v -3.37271 c 0,-4.00185 -1.94904,-4.33557 -21.66569,-3.70968 L 674,609.21585 V 632.73293 656.25 l 3.125,-0.625 c 1.71875,-0.34375 9.14375,-0.625 16.5,-0.625 z m 26.08396,2.37563 C 719.31903,656.9857 719,645.26667 719,631.33333 V 606 l 12.25,0.006 c 27.20521,0.0124 37.99277,14.12002 23.45659,30.67582 l -3.0477,3.47113 1.8344,3.17374 c 1.00892,1.74555 3.36267,4.8924 5.23054,6.993 5.07296,5.70502 4.24652,7.11969 -4.36515,7.47213 l -7.12011,0.2914 -2.59463,-4.2914 c -7.54248,-12.47493 -11.44088,-13.63996 -11.85013,-3.5414 l -0.29381,7.25 -6.04104,0.29229 c -3.32257,0.16076 -6.36007,-0.0267 -6.75,-0.41666 z M 730,649.08179 c 0,-13.08949 7.9681,-11.79444 16.52144,2.68522 1.77357,3.00241 2.2909,3.23299 7.25369,3.23299 h 5.34392 l -3.94741,-4.75 c -6.58876,-7.92837 -7.69996,-10.85772 -4.83165,-12.73712 C 767.50948,626.26301 757.42638,609.7289 732.75,608.6691 L 721,608.16446 V 631.58223 655 h 4.5 4.5 z m 4,-16.98716 -4.5,-0.59463 -0.29436,-7.87773 -0.29437,-7.87773 8.47128,0.44463 C 750.09941,616.85663 755.12269,632 742.62724,632 c -0.80501,0 -2.06297,0.15509 -2.79545,0.34463 -0.73249,0.18955 -3.35679,0.077 -5.83179,-0.25 z m 10.54545,-4.54918 c 5.02704,-5.02703 2.83595,-8.1788 -6.04545,-8.69603 l -6,-0.34942 -0.2999,5.75 -0.29991,5.75 h 5.09536 c 4.07655,0 5.58614,-0.49078 7.5499,-2.45455 z M 392.67364,572.91676 C 380.313,571.8505 376.667,569.80532 384.75,568.4721 c 18.14428,-2.99275 45.8846,-13.08692 69.75,-25.38068 9.29816,-4.78976 11.26542,-5.53348 8.73744,-3.30317 l -3.26257,2.87838 5.76257,-0.36842 c 8.77808,-0.56121 14.17435,-1.33942 14.60325,-2.10599 0.86954,-1.55408 -2.6518,-11.28681 -3.90906,-10.80436 -1.8305,0.70243 3.75584,-7.26065 7.87292,-11.22249 6.07278,-5.8438 11.76615,-1.1271 16.40791,13.5932 1.88362,5.97347 0.53933,5.88866 14.28754,0.90134 5.33393,-1.93494 7.75504,-3.2257 6.5,-3.46531 C 506.8948,526.40614 495.30356,496 508.84575,496 c 8.80667,0 23.84126,25.64012 17.90425,30.53404 -2.07638,1.71158 -2.52777,2.42888 -1.25,1.98635 32.3041,-11.18774 68.837,-45.5303 85.96715,-80.81299 49.70566,-102.37788 -50.92822,-216.96163 -155.22383,-176.74099 -26.79495,10.33323 -51.51316,38.40691 -52.99745,60.19179 -0.7052,10.35027 -3.41601,11.84218 -15.83516,8.715 -13.11241,-3.30174 -9.81204,-34.18817 5.93736,-55.5647 39.5003,-53.6134 129.37749,-66.31425 185.15193,-26.16445 2.2,1.58369 6.56814,4.67778 9.70699,6.87575 69.55619,48.7066 84.97455,156.50372 31.96466,223.4802 -51.10738,64.5727 -127.76994,93.01956 -227.49801,84.41676 z M 469,569.48915 C 626.15499,550.46879 704.6272,391.37432 608.60434,286.45548 601.84148,279.06608 596.85614,274.74262 581.55803,263 510.7532,208.65119 383.83952,246.7584 381.7318,323 c -0.35314,12.77419 0.98565,14.47853 12.30228,15.66135 l 5.82461,0.60879 0.51682,-3.38507 c 0.28425,-1.86179 0.76245,-5.55917 1.06267,-8.2164 6.40614,-56.70044 100.04381,-86.47362 159.06022,-50.57504 108.63849,66.08276 76.73799,222.12029 -53.32972,260.85614 -8.71649,2.59588 -8.16868,2.71974 -8.16868,-1.84705 0,-10.91999 -8.52883,-20.90925 -13.64799,-15.985 -5.45168,5.2441 -5.67675,6.09048 -3.73932,14.06179 2.23349,9.18943 2.02463,9.34642 -13.68156,10.28384 l -12.03531,0.71833 -14.2712,6.89295 C 428.77428,558.2813 408.16468,566 404.44266,566 403.6492,566 403,566.40787 403,566.90638 c 0,0.49851 -0.97037,0.65262 -2.15637,0.34248 -1.47604,-0.386 -1.93096,-0.19918 -1.44191,0.59212 0.4487,0.72602 0.0419,1.09765 -1.09363,0.99908 -3.2927,-0.28582 -5.30809,0.14704 -5.30809,1.14005 0,2.27166 56.17218,1.90879 76,-0.49096 z m 55.63197,-44.57071 c 4.16916,-2.57668 4.17097,-2.52411 -0.31223,-9.05623 -12.02677,-17.52328 -15.06597,-19.82408 -19.7408,-14.94461 l -2.79524,2.9176 3.54858,5.34616 C 508.84586,514.4748 519.6594,527 520.71587,527 c 0.30143,0 2.06368,-0.9367 3.9161,-2.08156 z M 337.5,559.44845 C 269.99035,547.03517 206.31364,486.82383 184.54106,414.81375 172.2201,374.06371 168.97693,316.27798 177.14312,283 c 2.0524,-8.36372 4.72173,-14.99262 4.83216,-12 0.0492,1.33333 0.16305,1.33333 1.02472,0 0.652,-1.0089 0.97439,2.98743 0.98469,12.20638 0.0317,28.39245 13.47758,72.92582 27.41312,90.79362 11.2514,14.42626 11.35855,15.13886 2.56955,17.0887 -5.67229,1.25839 -6.03478,1.50652 -5.47268,3.74614 0.33109,1.31917 0.86149,3.69599 1.17865,5.28182 0.70067,3.50332 1.53477,3.57686 5.64339,0.49756 3.46257,-2.5951 11.05979,-6.61422 12.50265,-6.61422 4.96499,0 11.78712,10.93857 7.93063,12.71595 -1.2375,0.57034 -6.1402,3.91078 -10.89489,7.4232 l -8.6449,6.38623 1.89215,4.98731 c 3.09347,8.15375 4.84792,11.36562 4.87487,8.9244 0.0257,-2.3272 2.01263,-4.3115 13.80275,-13.78443 10.00034,-8.0349 21.32377,-7.12101 21.20471,1.71139 -0.0502,3.72698 -25.69639,24.20611 -29.17446,23.29657 -1.67624,-0.43834 -0.72601,1.3495 6.99151,13.15437 l 1.51344,2.31498 1.87911,-2.96785 c 8.99833,-14.21188 29.19285,-25.92883 34.88263,-20.23904 4.15955,4.15954 4.14067,4.19656 -8.82692,17.31308 -15.53909,15.71755 -17.00067,16.50093 -22.41455,12.01384 -6.94375,-5.75506 9.55176,12.83593 20.0065,22.54799 52.93188,49.17174 108.24273,57.48568 162.28547,24.39362 22.93198,-14.04197 50.32243,-47.92975 56.32957,-69.69161 0.91093,-3.3 1.91513,-6.87901 2.23156,-7.95336 0.54541,-1.85184 0.48539,-1.86344 -1.15492,-0.22313 -1.96395,1.96395 -2.60819,1.9019 -20.53363,-1.97755 -17.22489,-3.72783 -23.01422,-9.49818 -15.94658,-15.89431 5.75768,-5.21062 38.77624,1.86355 39.06578,8.36978 0.17652,3.96664 2.62906,-9.21847 3.22193,-17.32143 0.28169,-3.85 0.27706,-5.875 -0.0103,-4.5 -1.05284,5.03786 -1.76931,5.25386 -15.79423,4.76178 -18.0838,-0.6345 -19.78901,-1.97189 -13.53033,-10.61174 L 462.01254,395 h 11.3026 c 12.17314,0 14.22806,0.68598 14.97794,5 0.27703,1.59374 0.46165,1.04999 0.50929,-1.5 0.0815,-4.36353 -2.50753,-19.45784 -2.69024,-15.68426 C 485.8516,388.19635 484.53295,389 475.96482,389 468.09431,389 468,388.96981 468,386.45034 c 0,-7.28687 4.83852,-10.49292 13.23876,-8.77215 l 4.84795,0.99309 -0.64825,-3.08564 C 479.27922,346.26801 454.35187,318.28105 428.75,311.9392 c -8.08932,-2.00382 -4.00459,-10.64116 9.9573,-21.05514 7.51861,-5.60803 14.5561,-3.33891 34.35051,11.07574 C 526.1611,340.63059 531.43155,434.93054 483.95866,497 450.02441,541.36809 386.49336,568.45706 337.5,559.44845 Z m 44.51127,-2.98594 c 133.44652,-27.11394 183.06834,-203.14085 73.97503,-262.41673 -11.99579,-6.51792 -20.84983,-2.81308 -28.46349,11.91011 l -1.40457,2.71614 5.69088,1.78544 C 491.88176,329.30447 510.15366,415.47687 467.12261,477 463.42192,482.29101 439,508.72961 439,507.44487 c 0,-0.20059 -2.91955,1.84509 -6.48788,4.54596 -37.63987,28.48952 -86.48157,32.00366 -130.51212,9.39029 -36.74285,-18.87052 -80.85732,-68.80347 -87.40951,-98.93841 -0.65308,-3.00365 9.65624,-12.3111 19.23727,-17.36777 l 2.32777,-1.22854 -3.82777,-3.38158 c -5.12705,-4.5294 -9.83754,-3.43137 -18.62573,4.3417 -4.08699,3.6149 -5.50646,1.78668 -7.25542,-9.34466 l -0.63447,-4.03813 6.50216,-1.96187 6.50216,-1.96186 -6.65823,-8.79367 c -5.94651,-7.85369 -6.72658,-8.54849 -7.29767,-6.5 -0.50018,1.79411 -0.63837,1.53137 -0.63451,-1.20633 0.003,-2.00404 -1.48773,-6.49191 -3.48736,-10.5 -10.18942,-20.42387 -19.58816,-55.93908 -19.82811,-74.92489 l -0.0894,-7.07511 -1.37253,5 c -11.85674,43.19312 -1.23366,124.04648 21.87594,166.5 40.70968,74.78575 116.5781,119.48823 180.68669,106.46251 z M 261.84992,455.11245 c 13.12312,-12.57733 13.98844,-14.22327 8.96108,-17.04506 -4.00191,-2.24621 -6.43016,-0.85775 -18.80831,10.7545 -11.81334,11.08238 -12.29795,11.97376 -8.54814,15.72356 3.86275,3.86276 5.28202,3.13496 18.39537,-9.433 z M 240.00445,436.25 c 4.51241,-3.7125 9.50508,-7.65 11.09484,-8.75 5.04275,-3.48923 2.88212,-11.5 -3.10172,-11.5 C 246.12239,416 225,432.62391 225,434.09973 c 0,9.26997 5.40862,10.04507 15.00445,2.15027 z m -14.65937,4.20687 c -0.32569,-0.84872 -0.80663,-1.32866 -1.06875,-1.06653 -0.26213,0.26213 -0.17998,0.95654 0.18255,1.54313 0.98605,1.59546 1.56238,1.28551 0.8862,-0.4766 z M 481.30964,434.25 C 486.2059,425.66365 473.35119,419 451.8912,419 c -6.07797,0 -8.64279,6.78917 -3.45738,9.1518 7.53541,3.43336 31.82608,7.93908 32.87582,6.0982 z m 3.10857,-26.85699 c 2.71618,-1.04229 2.16591,-9.20895 -0.66821,-9.91713 -7.56305,-1.88985 -21.11011,-0.0336 -22.96445,3.14657 -2.31146,3.96416 -1.47244,6.15602 2.54956,6.6605 5.38966,0.67603 19.41738,0.74926 21.0831,0.11006 z M 482.8,385.8 c 3.50535,-3.50535 -1.16198,-7.51748 -7.38665,-6.34972 -2.8494,0.53455 -5.41335,3.65901 -5.41335,6.59677 0,1.38859 11.38408,1.16887 12.8,-0.24705 z M 181.68311,274.8125 c -0.31922,-0.79773 -0.55618,-0.56078 -0.60416,0.60417 -0.0434,1.05416 0.19292,1.64479 0.52522,1.3125 0.33229,-0.33229 0.36781,-1.1948 0.0789,-1.91667 z m 173.09332,257.03403 c -9.02117,-3.29761 -5.30311,-48.30108 3.9905,-48.30108 7.35312,0 7.38174,0.0964 7.03779,23.71087 l -0.30472,20.92061 -2.80576,2.41154 c -3.05574,2.62638 -3.83557,2.75028 -7.91781,1.25806 z m 7.22861,-3.3526 c 1.39555,-1.68154 2.75858,-35.31528 1.61571,-39.86883 -0.95905,-3.8212 -7.72929,-3.87705 -9.46023,-0.078 -1.63329,3.58467 -1.59893,38.61454 0.0395,40.25295 1.67869,1.67869 6.30852,1.49713 7.80504,-0.30607 z m 23.24435,-2.24454 c -5.7263,-5.7263 -11.21755,-38.52922 -7.28185,-43.49939 5.95021,-7.5142 13.12222,-2.49473 14.98279,10.48601 0.65148,4.54519 2.05416,11.71397 3.11709,15.9306 2.77243,10.99832 0.83216,17.83339 -5.06236,17.83339 -0.46282,0 -1.5185,0.25979 -2.34595,0.57732 -0.82746,0.31752 -2.36183,-0.28004 -3.40972,-1.32793 z m 8.16345,-3.59007 2.91284,-2.33074 -1.76347,-6.91429 C 393.5923,509.61143 391.98798,501.5761 390.99705,495.55801 388.78923,482.14958 385.40611,478.59389 380,484 c -2.93046,2.93046 -2.56476,8.70816 1.56136,24.66778 4.56439,17.65488 5.65869,18.94678 11.85148,13.99154 z m -68.87116,3.52901 c -8.5072,-1.80376 -8.55043,-5.37028 -0.37804,-31.18833 3.64154,-11.50427 5.91927,-14.40287 10.71039,-13.62986 8.16829,1.31789 8.57401,4.02502 3.21129,21.42686 -7.22959,23.45973 -7.8847,24.59118 -13.54364,23.39133 z m 5.14435,-5.93833 c 3.24105,-7.67304 10.28773,-31.75732 9.76946,-33.39025 -3.74186,-11.78954 -15.28594,6.46679 -19.07581,30.16734 -1.12077,7.00888 6.58061,9.67598 9.30635,3.22291 z m 84.50379,-6.52128 c -2.17225,-2.6174 -16.18942,-33.18438 -16.18962,-35.30441 -5.7e-4,-5.9079 9.4052,-9.24796 13.52486,-4.80277 5.5131,5.94873 16.41834,28.88691 16.45664,34.61504 0.0273,4.07753 -11.24165,8.56498 -13.79188,5.49214 z m 11.00222,-7.26058 C 424.48708,500.2309 412.34814,476 409.92844,476 c -0.57556,0 -0.76836,-0.45 -0.42844,-1 1.29025,-2.08767 -5.33313,-1.40961 -7.80664,0.7992 -2.38217,2.12724 -2.13214,2.91648 6.79415,21.44583 l 7.56394,15.70135 4.72427,-1.87676 c 4.18743,-1.6635 4.68928,-2.18639 4.41632,-4.60148 z M 534.15654,504.25 c -17.55056,-18.86443 -18.34196,-20.35947 -13.46945,-25.44528 3.68159,-3.84275 8.49557,-3.83283 12.13983,0.025 23.30341,24.6693 25.36383,28.30762 19.04291,33.62633 -5.15713,4.33944 -6.71148,3.61936 -17.71329,-8.20608 z m 16.68638,5.59932 3.22259,-3.15068 -2.28275,-2.59906 C 550.52724,502.6701 547.475,499.21266 545,496.41639 c -2.475,-2.79628 -7.11548,-8.0839 -10.31217,-11.75027 -6.24489,-7.16241 -7.95744,-7.81508 -12.05297,-4.59354 -3.83358,3.0155 -3.46669,3.95209 5.5472,14.1608 18.26808,20.68956 17.8008,20.36755 22.66086,15.61594 z M 294,512.30528 c -8.89683,-3.32054 -7.80724,-8.48053 6.65293,-31.5065 5.7587,-9.16998 7.42962,-10.38108 12.90527,-9.35384 9.91944,1.8609 7.32755,9.685 -12.2731,37.04864 -2.86876,4.00495 -4.49189,4.8542 -7.2851,3.8117 z m 7.68249,-8.55528 c 17.38747,-26.08158 18.08291,-27.7481 12.46985,-29.88218 -4.87253,-1.85253 -6.40602,-0.47409 -14.45573,12.99416 -9.95958,16.66373 -10.75778,18.86032 -7.74117,21.30302 3.65466,2.95937 5.31253,2.20688 9.72705,-4.415 z m 263.52835,-11 c -2.23329,-1.7875 -7.76919,-6.175 -12.302,-9.75 C 539.33455,472.29402 538,470.78774 538,466.17258 c 0,-8.26096 7.41892,-10.53336 14.27234,-4.37158 2.32521,2.09055 8.58171,7.26454 13.90332,11.49776 15.07365,11.99075 15.9148,13.57474 10.17094,19.1531 -4.50422,4.37445 -5.99303,4.41431 -11.13576,0.29814 z m 9.19443,-1.65113 c 4.0438,-4.22081 3.21709,-5.68585 -8.52014,-15.09887 -5.82933,-4.675 -12.48901,-10.20964 -14.79929,-12.29919 -6.68316,-6.04466 -13.55023,-2.28648 -10.47333,5.73179 0.33688,0.87789 4.72438,4.75377 9.75,8.61307 5.02562,3.8593 11.51685,9.02782 14.42495,11.48562 6.2589,5.28972 6.07975,5.26052 9.61781,1.56758 z m -309.2091,-1.39648 c -5.12868,-5.29145 -4.69637,-6.47936 7.16661,-19.69273 2.71108,-3.01969 6.67773,-7.85719 8.81477,-10.75 4.2575,-5.76317 6.54662,-6.4879 11.84247,-3.74931 6.48704,3.35458 6.42445,6.94586 -0.25825,14.81861 -20.68127,24.36415 -21.89894,25.21994 -27.5656,19.37343 z m 19.04879,-12.94633 c 12.84915,-14.84807 13.43874,-16.3169 7.73383,-19.26703 -4.39298,-2.2717 -5.50752,-1.87873 -9.24871,3.26097 -1.90164,2.6125 -6.48309,8.125 -10.18101,12.25 -9.20887,10.27243 -9.61133,11.2818 -6.0009,15.05028 4.0716,4.24983 4.45971,4.00213 17.69679,-11.29422 z M 441.12658,490.25 c -1.15225,-0.9625 -4.0146,-4.27745 -6.36079,-7.36655 -2.34618,-3.0891 -6.62829,-8.39996 -9.51579,-11.80191 -10.18407,-11.99853 -1.27042,-23.29064 9.86571,-12.49821 17.21287,16.68164 20.04571,22.63286 13.8862,29.1721 -4.51208,4.79025 -4.958,4.93149 -7.87533,2.49457 z m 6.77641,-4.64991 c 6.76873,-6.98356 -16.80031,-33.52792 -23.99142,-27.02006 -2.80024,2.53418 -2.3856,4.38582 2.22546,9.9383 2.27536,2.73992 6.63874,8.13167 9.69641,11.98167 7.91777,9.96951 7.51491,9.79928 12.06955,5.10009 z m 134.4778,-18.02287 C 567.90962,463.04889 552,451.7352 552,445.97274 c 0,-8.85009 7.01756,-9.2953 24.33582,-1.54391 6.6903,2.99447 14.80397,6.4249 18.03038,7.62316 l 5.8662,2.17866 -0.52606,3.92211 c -1.25715,9.3727 -7.18548,12.5975 -17.32555,9.42446 z M 595.70846,462.5 c 3.26483,-5.78194 3.1037,-6.04143 -5.90992,-9.51745 -4.51081,-1.73955 -11.59831,-4.87035 -15.75,-6.95734 -11.62401,-5.8432 -14.70699,-6.45767 -17.64733,-3.51733 -4.72342,4.72342 -1.8092,8.75959 10.95572,15.17355 20.58704,10.34433 24.82467,11.06455 28.35153,4.81857 z M 450.68943,458.07447 C 434.89889,448.36868 434,447.57535 434,443.34501 c 0,-9.10818 7.65614,-9.68839 20.64198,-1.56432 5.02809,3.14562 11.21559,6.94573 13.75,8.44469 5.43388,3.21383 5.74648,4.97584 2.013,11.34655 -3.51224,5.99318 -4.58453,5.80296 -19.71555,-3.49746 z m 17.8569,1.85214 c 3.37597,-5.34788 3.91932,-4.68713 -11.42765,-13.89665 -13.93542,-8.36247 -16.24894,-9.12704 -19.28994,-6.37497 -4.74515,4.2943 -3.31038,5.9404 14.39583,16.51629 15.45873,9.23347 13.19269,8.7121 16.32176,3.75533 z M 598.5,440.6353 C 588.3075,436.71379 573.67088,431.29419 570.06493,430.10646 560.2883,426.88621 560.74948,414 570.64136,414 c 4.80112,0 22.68318,4.63422 28.82145,7.46921 2.77045,1.27956 7.1579,3.23971 9.74988,4.35589 14.05797,6.0538 3.71029,20.35937 -10.71269,14.8102 z m 13.01123,-4.02552 c 2.9375,-7.69174 -22.113,-20.4492 -40.43249,-20.59103 -8.945,-0.0693 -8.06485,9.67054 1.1248,12.4472 2.36305,0.714 9.69646,3.44099 16.29646,6.05998 20.4134,8.10038 20.70346,8.12665 23.01123,2.08385 z M 338.5,436.41168 C 266.00479,429.30734 211.41659,378.42827 191.60732,299.5 168.19242,206.20539 265.29286,98.978125 379,92.563727 c 5.775,-0.325777 14.775,-0.831408 20,-1.123624 21.01808,-1.175467 70.66667,3.793208 70.66667,7.072099 0,0.790267 -4.14705,1.801438 -11.87012,2.894278 -22.36784,3.16514 -51.01219,14.10398 -70.45413,26.90535 -12.90851,8.4995 -13.17953,8.44852 -16.27614,-3.06183 -0.62885,-2.3375 -1.65166,-4.25 -2.27291,-4.25 -1.63998,0 -14.23103,2.19483 -14.63663,2.55141 -0.18879,0.16598 2.39871,4.76372 5.75,10.21722 7.14162,11.62142 7.20646,12.04678 2.47017,16.2053 -8.37189,7.35062 -10.61558,6.21338 -18.42659,-9.33973 -5.18396,-10.32219 -5.14762,-12.0248 0.29968,-14.0391 4.0035,-1.48041 4.047,-1.53636 0.75,-0.96463 -22.32458,3.87133 -59.7749,23.90662 -79.39492,42.47496 -68.75169,65.06646 -65.63387,154.88708 7.39492,213.03846 64.93491,51.70638 153.46684,29.06315 169.47649,-43.34589 2.9691,-13.42873 18.50478,-10.72243 22.44485,3.90986 12.26084,45.53332 -61.82752,101.03385 -126.42134,94.70382 z m 34.4895,-4.04481 c 47.86506,-8.03099 87.61162,-44.5357 89.6816,-82.36687 0.56841,-10.38835 -1.17178,-14.00689 -8.23956,-17.13331 -7.09437,-3.13817 -7.51651,-2.7588 -10.63648,9.55884 -30.9988,122.38319 -216.8693,71.64021 -229.81467,-62.73982 -4.07055,-42.25455 27.22166,-101.77442 66.92303,-127.29204 C 283.98154,150.41524 288.975,147.14401 292,145.12426 309.94434,133.14312 351.40524,119 368.58392,119 c 3.00814,0 3.29165,0.30784 4.37472,4.75 2.03284,8.33765 3.17505,9.71928 6.11999,7.40279 1.35349,-1.06465 5.15199,-3.58538 8.44113,-5.60161 3.28913,-2.01622 5.08024,-3.54876 3.98024,-3.40563 -2.88428,0.3753 -7.67799,-1.04854 -7.03467,-2.08946 0.30092,-0.4869 0.003,-1.06671 -0.66249,-1.28848 -0.66528,-0.22176 2.59441,-0.38288 7.24377,-0.35804 8.31706,0.0444 8.69678,-0.0636 23.5453,-6.6997 16.92497,-7.56409 30.20953,-11.33489 44.34631,-12.587631 5.25898,-0.466027 7.64444,-0.909177 5.30101,-0.98478 -2.34342,-0.0756 -8.64342,-0.902095 -14,-1.83665 C 345.70655,78.063132 240.15912,129.1316 202.34724,216.2418 156.08356,322.8231 257.82991,451.68882 372.9895,432.36687 Z M 359.75,149.30158 c 4.18625,-3.09571 1.09172,-13.66863 -6.18497,-21.13187 -1.56458,-1.60469 -9.43446,0.32646 -10.27689,2.52179 -1.22081,3.18138 9.79095,22.92944 12.07301,21.65129 0.62637,-0.35082 2.60135,-1.71936 4.38885,-3.04121 z m -8.02083,-24.90575 c -0.33229,-0.33229 -1.1948,-0.36781 -1.91667,-0.0789 -0.79773,0.31922 -0.56078,0.55618 0.60417,0.60416 1.05416,0.0434 1.64479,-0.19292 1.3125,-0.52522 z M 395.5,121 c 0.33992,-0.55 0.14148,-1 -0.44098,-1 -0.58246,0 -1.05902,0.45 -1.05902,1 0,0.55 0.19844,1 0.44098,1 0.24254,0 0.7191,-0.45 1.05902,-1 z m 259.16667,302.33333 c -1.32937,-1.32936 -0.61907,-11.23234 1.50078,-20.92403 5.84113,-26.70488 2.6323,-52.45361 -9.96768,-79.98418 C 642.94626,315.3163 639.93276,308.375 639.50311,307 c -1.14871,-3.67613 -6.36764,-11.54168 -13.63724,-20.55291 -11.50161,-14.25714 -11.8684,-15.26895 -6.46474,-17.83315 6.58761,-3.12603 12.35293,-1.57856 16.39517,4.40063 l 2.35633,3.48543 -0.71435,-3 c -2.09155,-8.78364 -4.59377,-18.38852 -5.55829,-21.3357 l -1.09166,-3.33569 -2.64416,2.4074 C 612.92368,265.09363 599,266.96342 599,255.14975 599,251.70586 618.28943,237 622.80671,237 c 7.30864,0 -15.7057,-36.74433 -36.17278,-57.75288 C 532.59338,123.77688 459.37133,119.58813 398.43951,168.48125 328.55015,224.56211 339.56098,341.44515 416,354.89084 l 9.5,1.67105 -0.25398,4.83385 C 423.34801,397.5188 365.2022,378.14529 338.65935,332.54606 290.12296,249.16307 353.31665,132.25797 458.6918,110.49213 564.40928,88.655589 663.22117,180.87014 671.93737,309.5 c 3.19418,47.13835 -8.28763,122.8164 -17.2707,113.83333 z m 5.75925,-13.73951 C 708.58011,243.52485 588.03608,75.225508 449.5,115.10647 358.70591,141.24374 306.96374,225.56149 331.12954,308 c 11.34205,38.69195 43.4728,68.67848 73.87046,68.9408 15.22193,0.13136 26.50598,-17.72019 12.25,-19.3797 C 369.44094,351.99577 337.32169,293.05764 352.35423,238.47876 379.08747,141.41799 490.93654,100.98913 569,160.17018 c 43.11912,32.68923 74.03728,91.51306 72.90446,138.70548 -0.17746,7.39282 0.005,8.03428 6.01852,21.12434 13.71321,29.85206 16.67266,55.40393 10.09396,87.15128 -2.70711,13.0639 -1.13349,14.65943 2.40898,2.44254 z M 639.78768,292.9031 639.48156,285.5 l -0.49078,8.20479 c -0.26993,4.51264 -0.13218,7.84403 0.30612,7.4031 0.43829,-0.44093 0.65915,-4.13308 0.49078,-8.20479 z m -2.27501,-8.29817 c -1.59453,-12.58836 -9.82199,-18.70424 -17.72006,-13.17222 -1.77984,1.24665 -1.70195,1.52171 1.61087,5.68864 1.91463,2.40826 6.0946,7.77719 9.28883,11.93095 l 5.80769,7.55231 0.81636,-3.55231 c 0.449,-1.95376 0.53734,-5.75508 0.19631,-8.44737 z M 618.32381,255.78294 C 626.2604,250.09585 627,249.28041 627,246.2172 c 0,-7.92114 -2.61972,-8.8013 -10.7384,-3.60785 -13.97108,8.93719 -16.04931,11.91524 -11.57451,16.58593 3.59004,3.74719 3.67491,3.72595 13.63672,-3.41234 z m -270.83265,150.03145 -2.77855,-2.18561 0.62296,-11.5857 c 0.98514,-18.32154 2.73246,-22.24676 9.18258,-20.62788 5.74422,1.44171 6.32295,3.15471 5.82227,17.23352 -0.58854,16.54952 -0.68096,16.92574 -4.48362,18.25135 -4.35935,1.51968 -5.1906,1.4118 -8.36564,-1.08568 z M 356,404.02189 C 360.84861,400.95923 358.25013,373 353.11688,373 c -3.25046,0 -4.03958,2.78618 -5.66452,20 -0.98097,10.39195 2.4799,14.85462 8.54764,11.02189 z m 230.5,0.83403 c -16.10598,-1.15437 -19.86398,-3.28527 -18.11104,-10.26953 1.3728,-5.46965 3.82474,-5.97156 22.88493,-4.68449 28.53452,1.92684 30.68259,2.56985 30.7108,9.19311 0.0309,7.25623 -4.45668,7.98479 -35.48469,5.76091 z m 32.54985,-2.94906 c 3.50252,-6.54452 -0.5825,-7.98746 -28.20288,-9.96201 -18.84284,-1.34705 -23.47063,0.28428 -19.8735,7.00557 2.41222,4.50728 45.81787,7.17649 48.07638,2.95644 z M 321.25,403.01096 c -4.7784,-2.91345 -1.98938,-15.9025 7.32926,-34.13386 4.15388,-8.12682 15.08078,-1.52666 12.08077,7.29715 -8.99714,26.46292 -12.3714,31.12825 -19.41003,26.83671 z M 331.29967,394 c 9.25906,-24.27401 9.40778,-25.5 3.09329,-25.5 -3.30136,0 -4.07983,1.2707 -9.80214,16 -4.96216,12.77263 -5.28454,14.51957 -2.98918,16.19798 4.17762,3.05475 6.62189,1.36661 9.69803,-6.69798 z m 43.00633,8.98756 c -4.74621,-1.9073 -6.18812,-21.14831 -1.63346,-21.79696 10.10722,-1.43941 19.5473,14.62817 12.07746,20.55657 -1.90221,1.50967 -7.97818,2.23129 -10.444,1.24039 z m 8.11221,-2.59455 c 5.11265,-1.9619 1.28862,-14.64181 -4.91821,-16.30805 -5.64457,-1.5153 -5.50057,-1.62445 -5.49442,4.16504 0.0121,11.39856 3.06743,14.96163 10.41263,12.14301 z m -85.40935,-5.68287 C 290.75613,391.54662 310.99453,357 319.10054,357 c 7.47896,0 7.65264,5.0267 0.65646,18.99874 -8.51393,17.00315 -15.22076,22.51982 -22.74814,18.7114 z m 11.26746,-4.99089 c 10.00952,-10.14475 17.2581,-30.67412 10.58218,-29.97077 -3.39704,0.35791 -17.6404,20.1314 -22.69225,31.50276 -0.38837,0.87421 3.5225,2.59304 6.11007,2.68537 0.97697,0.0349 3.67697,-1.86295 6,-4.21736 z m -34.19959,-9.30814 c -7.87077,-6.62281 24.07763,-38.79713 32.18905,-32.41669 4.10078,3.22567 3.42427,5.37216 -4.51578,14.32803 -18.24262,20.57654 -21.88619,22.95816 -27.67327,18.08866 z m 10.41352,-3.40267 c 8.60585,-7.44831 22.39568,-24.46089 21.34663,-26.33544 -1.98029,-3.53858 -6.83259,-2.08619 -11.76649,3.52195 -2.51372,2.85722 -8.05789,8.55654 -12.32039,12.66516 -8.9448,8.62189 -9.51488,12.5223 -2.06082,14.09985 0.10405,0.022 2.26453,-1.75616 4.80107,-3.95152 z m 282.06645,1.76905 c -3.98601,-5.69083 -1.38203,-11.9634 5.7383,-13.82263 2.31275,-0.60389 8.705,-2.40897 14.205,-4.01129 5.5,-1.60232 13.15,-3.5863 17,-4.40885 3.85,-0.82255 7.99067,-1.77613 9.20149,-2.11908 4.29387,-1.21616 8.71676,11.36457 5.04851,14.3603 -2.86878,2.34283 -40.23928,12.1619 -46.4433,12.20294 -2.18219,0.0144 -3.68619,-0.6826 -4.75,-2.20139 z m 12.62792,-1.29055 c 12.38419,-2.56147 37.01852,-9.85275 37.49645,-11.09822 0.62847,-1.63776 -1.5588,-9.38872 -2.64944,-9.38872 -4.31544,0 -43.59795,10.39519 -45.61808,12.07175 -1.91269,1.58739 -1.78533,5.85996 0.24144,8.09951 1.99223,2.20139 1.48597,2.18621 10.52963,0.31568 z M 255.07673,364.41111 c -5.61018,-4.72065 -4.39308,-7.41995 8.15295,-18.08171 19.6577,-16.70534 24.84153,-19.31171 28.99705,-14.5794 5.09706,5.80452 4.01964,7.44794 -14.83928,22.63477 -16.86235,13.57902 -17.66169,13.93824 -22.31072,10.02634 z M 265.3004,361.25 c 2.43212,-2.0625 9.4258,-7.8 15.54153,-12.75 11.90358,-9.63464 13.85687,-12.98528 9.06493,-15.54985 -3.96933,-2.12432 -5.25853,-1.33252 -26.55056,16.30681 -10.36459,8.58651 -10.87921,9.97591 -5.3563,14.46124 2.16134,1.75528 2.42523,1.66606 7.3004,-2.4682 z m 291.86024,-3.77291 c -6.01041,-7.641 0.0876,-13.73799 23.33936,-23.33558 6.6,-2.72426 14.12738,-6.15339 16.7275,-7.62028 5.53578,-3.12307 6.01995,-2.93984 9.29152,3.5163 4.61316,9.10365 5.7141,7.97519 -19.49515,19.98251 -22.27096,10.60781 -26.54528,11.67514 -29.86323,7.45705 z m 14.82395,-3.0303 c 4.44481,-1.95427 9.57255,-4.43298 11.39499,-5.50824 1.82244,-1.07527 7.54508,-3.78419 12.71697,-6.01984 11.48245,-4.96349 11.38083,-4.86761 9.57859,-9.03711 -3.08583,-7.13914 -3.76988,-7.49613 -8.76232,-4.57289 -2.42705,1.42113 -8.91282,4.44469 -14.41282,6.71904 -19.04772,7.87656 -26.28767,12.84976 -24.96774,17.15059 1.8108,5.90028 3.56706,6.05442 14.45233,1.26845 z M 236.70981,341.25 c -4.04212,-9.50975 -3.39999,-10.34342 13.29019,-17.25455 6.875,-2.84682 14.80478,-6.48541 17.62173,-8.08574 14.94604,-8.49101 21.17983,3.39854 6.65384,12.69071 -21.64363,13.84526 -35.1276,18.38574 -37.56576,12.64958 z M 255.5,336.24302 c 21.62362,-10.79473 27.49642,-15.8466 23.3,-20.04302 -1.87187,-1.87187 -3.18197,-1.52984 -14.08634,3.67745 -10.22764,4.88412 -12.67397,5.98856 -22.46366,10.14163 -5.84038,2.47766 -6.35665,3.84657 -3.62318,9.60693 1.96059,4.13164 1.72588,4.1787 16.87318,-3.38299 z m 289.1683,4.5037 c -6.89093,-5.03877 -2.75413,-11.02683 18.83678,-27.26647 17.45424,-13.12823 18.70698,-13.52552 23.51343,-7.45688 4.34351,5.48413 3.6244,7.31954 -5.7656,14.71578 -25.16983,19.82554 -31.84278,23.47488 -36.58461,20.00757 z m 11.46949,-4.39709 c 7.44181,-5.06607 20.34698,-14.80302 26.58859,-20.06109 l 5.22637,-4.40282 -2.60926,-3.94286 c -3.30567,-4.99521 -18.71044,3.4517 -37.19959,20.39769 -8.82386,8.08739 -2.0664,14.8577 7.99389,8.00908 z m -27.68324,-10.80418 c -3.17543,-3.17542 -3.09363,-5.14617 0.44521,-10.72634 C 533.2353,307.98267 557.85645,283 560.25841,283 c 2.39008,0 8.74159,6.42387 8.74159,8.84118 0,1.88532 -29.83,34.49587 -32.48734,35.51559 -3.13359,1.20247 -5.59836,0.64843 -8.05811,-1.81132 z m 8.09327,-1.31769 c 1.1263,-0.95027 8.52073,-8.61334 16.43205,-17.02904 l 14.38423,-15.30129 -3.68688,-3.68688 -3.68688,-3.68688 -12.63849,12.98816 c -18.30691,18.81342 -21.22942,23.5833 -16.60185,27.09612 2.3129,1.75574 3.34656,1.68796 5.79782,-0.38019 z M 226.73616,317.75 c -9.16557,-6.96005 -4.88268,-13.61351 10.76384,-16.7216 6.05,-1.20179 14.44998,-3.04982 18.66661,-4.10674 12.55146,-3.14606 16.11676,-2.62309 17.84641,2.6178 2.3495,7.11904 1.07267,7.87569 -24.31674,14.41002 -22.15943,5.70305 -20.7598,5.47138 -22.96012,3.80052 z M 246.5,312.46059 c 24.89459,-6.49574 24.95706,-6.52054 25.30107,-10.04576 0.46546,-4.76988 -1.77576,-6.0433 -8.12358,-4.61564 -2.84762,0.64044 -11.92749,2.57053 -20.17749,4.28909 -17.9624,3.74174 -18.904,4.14638 -18.02006,7.74389 1.05275,4.28456 3.44113,7.32262 5.3257,6.77436 0.9319,-0.2711 7.99436,-2.13678 15.69436,-4.14594 z m 263.02456,-1.43345 c -2.83669,-3.13451 -1.27346,-7.26009 6.72062,-17.73658 3.99015,-5.22923 9.1389,-12.34449 11.44167,-15.81169 5.15291,-7.75858 6.95785,-8.46317 12.84374,-5.01381 6.50492,3.81214 6.40855,4.13292 -6.67749,22.22698 -12.58555,17.40203 -19.28942,21.90326 -24.32854,16.3351 z M 520.70782,307.25 c 3.98952,-4.30207 19.39673,-24.66868 21.13079,-27.93255 1.01336,-1.90737 0.80228,-2.43697 -1.67411,-4.20032 -2.22735,-1.58601 -8.16411,-2.7834 -6.74013,-1.35943 0.1862,0.18621 -0.49244,1.3294 -1.50811,2.54043 -6.29327,7.50377 -18.28076,23.87284 -20.16732,27.53872 -3.87212,7.52413 2.79209,10.06306 8.95888,3.41315 z M 362,308 c -5.21788,-5.21788 -1.58683,-12 6.42461,-12 4.7965,0 5.96211,1.84313 4.53671,7.17367 C 371.03476,310.3784 366.41327,312.41327 362,308 Z m 7.3502,-0.75762 c 0.25753,-0.41668 0.78953,-2.47027 1.18222,-4.56351 l 0.71399,-3.80591 -4.36458,0.31352 c -5.01113,0.35996 -6.07996,2.336 -3.44157,6.36269 1.53094,2.33651 4.91343,3.3056 5.90994,1.69321 z m 123.0389,-7.18424 c -4.74952,-2.00425 -4.50781,-3.07193 4.93292,-21.7894 7.99177,-15.8447 8.23448,-16.03048 16.58057,-12.69104 5.76492,2.30667 5.66368,3.07505 -2.2129,16.79478 -10.43753,18.18048 -12.86244,20.40249 -19.30059,17.68566 z M 505.26929,288.75 c 12.38772,-20.97157 11.76992,-19.4044 8.18661,-20.76677 -7.08086,-2.69213 -7.07486,-2.69474 -10.74427,4.67339 -1.87444,3.76386 -5.05138,9.91825 -7.05985,13.67643 -8.39923,15.71629 0.44833,17.93975 9.61751,2.41695 z m -28.67352,0.57305 c -1.94843,-1.94844 -2.5444,-3.3772 -2.18989,-5.25 0.26789,-1.41518 0.78936,-4.59805 1.15884,-7.07305 1.29353,-8.66492 3.43146,-10.91038 10.64615,-11.18161 7.18,-0.26993 7.44525,2.31759 1.66529,16.24488 -4.62887,11.15363 -6.30672,12.23345 -11.28039,7.25978 z m 9.04511,-7.6444 c 4.49083,-10.52382 4.68886,-13.08353 1.04448,-13.50131 -5.62615,-0.64496 -7.90956,2.36929 -10.14214,13.38827 -0.6619,3.26683 2.59975,8.88673 4.74299,8.17232 0.58704,-0.19568 2.54664,-3.82236 4.35467,-8.05928 z m -267.00217,6.82223 C 213.79233,275.87142 217.18592,274 244.93426,274 c 26.33327,0 27.50244,0.33534 26.87271,7.70763 -0.57987,6.78854 -50.71211,13.19388 -53.16826,6.79325 z m 49.11129,-3.142 c 2.34165,-1.46222 2.91216,-4.76133 1.27256,-7.35888 -1.24978,-1.97996 -45.3033,-2.84182 -47.60528,-0.93135 -1.47953,1.2279 -1.81192,4.85724 -0.79298,8.65847 l 0.597,2.22712 22.13935,-0.59519 c 16.43392,-0.4418 22.71919,-0.95726 24.38935,-2.00017 z m 90.75,1.97617 c -4.07073,-1.15286 -5.26751,-11.31874 -1.56574,-13.29987 10.14026,-5.4269 29.21683,-0.24026 25.57191,6.95264 -3.01419,5.94822 -14.59933,9.01134 -24.00617,6.34723 z m 21.19589,-6.19686 C 382.76968,275.75404 381.60737,275 370.23426,275 359.7899,275 357,275.93882 357,279.4534 c 0,5.2779 0.52777,5.54715 10.85699,5.5389 l 9.64301,-0.008 2.19589,-3.84641 z M 251.14427,265.44916 c -26.06126,-4.89046 -31.66666,-7.47996 -30.66406,-14.16574 1.35929,-9.06443 0.93749,-8.95891 19.20745,-4.80516 8.14679,1.85221 18.18734,4.13472 22.31234,5.07225 11.57594,2.63097 15.3606,8.1798 9.54545,13.99494 -2.95603,2.95604 -4.16574,2.95033 -20.40118,-0.0963 z M 270,264 c 4.90131,-4.90131 1.72553,-7.92204 -11.5,-10.93853 -4.95,-1.129 -13.725,-3.17019 -19.5,-4.53597 -13.68561,-3.23665 -14.80723,-3.22048 -15.57389,0.2245 -0.3366,1.5125 -0.82026,3.52098 -1.07479,4.46329 -0.75553,2.79704 9.74189,6.26685 31.14868,10.29589 15.2204,2.86468 14.15775,2.83307 16.5,0.49082 z m 100,0.33633 c -14.15403,-1.38951 -16.15496,-2.63384 -15.28031,-9.50243 1.00908,-7.92423 1.3904,-8.19433 10.64081,-7.53685 19.87695,1.41275 32.5781,5.82715 31.30944,10.88187 -1.63536,6.51579 -8.01529,7.98875 -26.66994,6.15741 z m 22.17126,-2.99132 c 5.55314,-5.02552 2.23602,-7.09187 -16.55079,-10.31005 C 358.23786,248.05732 357,248.42262 357,256.52992 c 0,5.11925 30.25784,9.26167 35.17126,4.81509 z M 255,240.62551 c -25.94988,-11.3963 -24.9503,-10.84948 -24.97643,-13.66362 -0.10634,-11.45148 5.588,-13.40972 20.03751,-6.89075 31.04991,14.00832 33.27869,15.79484 28.57398,22.90413 -3.694,5.58201 -6.12423,5.3404 -23.63506,-2.34976 z m 20.68555,2.20018 c 5.64918,-5.30714 4.18677,-6.5222 -22.61101,-18.78651 -18.6522,-8.53639 -17.36984,-8.63392 -20.47336,1.55714 -1.47212,4.83399 39.03562,21.03297 43.08437,17.22937 z M 380.0392,241.0163 c -20.05806,-7.1557 -21.58959,-8.70618 -16.87892,-17.08769 3.25279,-5.78756 5.84278,-5.37354 31.83972,5.08966 14.80478,5.9586 16.26674,7.75174 12.01096,14.73173 -2.91118,4.77468 -7.12118,4.34798 -26.97176,-2.7337 z m 24.21287,2.2337 c 5.074,-5.68456 2.22257,-7.69475 -24.67333,-17.39407 -12.241,-4.41441 -13.04684,-4.3732 -15.19885,0.77728 -2.00138,4.78999 -0.59161,6.20556 9.62011,9.65972 4.125,1.3953 11.325,3.91632 16,5.60226 9.83503,3.5468 12.10306,3.7624 14.25207,1.35481 z m 177.10825,0.28983 c -6.19294,-4.33771 -5.36697,-10.68944 2.24069,-17.23107 3.07582,-2.64482 8.58638,-7.43883 12.2457,-10.65336 9.3595,-8.22189 10.79262,-8.77603 13.76365,-5.32199 5.91056,6.87143 4.67257,10.30447 -7.65196,21.21952 -14.29383,12.65914 -17.21297,14.35792 -20.59808,11.9869 z m 10.82345,-6.60731 C 600.23737,230.47115 611,220.10012 611,218.80091 c 0,-10.99589 -12.42852,-5.35562 -29.93154,13.58344 -7.32434,7.92527 2.09965,11.78138 11.11531,4.54817 z M 399.94886,223.425 c -6.29687,-3.61626 -14.53244,-8.19621 -18.30125,-10.17768 -8.73612,-4.59304 -9.76101,-6.60875 -6.54135,-12.86517 4.50151,-8.74728 2.87111,-9.11665 28.49578,6.45572 17.57921,10.68306 18.85067,11.82447 17.91539,16.08278 -1.89624,8.63353 -7.19761,8.75749 -21.56857,0.50435 z m 17.11172,2.51442 c 3.65552,-3.65552 2.27605,-6.86969 -4.67674,-10.89685 -3.36389,-1.94841 -11.57019,-6.8556 -18.23622,-10.90485 -13.23129,-8.0373 -14.07942,-8.15188 -17.06225,-2.30506 -2.47957,4.86037 -2.73608,4.59429 12.41463,12.87763 6.05,3.30771 13.7,7.63415 17,9.6143 7.03643,4.22219 7.83163,4.34378 10.56058,1.61483 z M 264.4695,214.00741 c -19.78139,-13.23838 -20.34149,-13.89463 -17.15632,-20.10133 4.07763,-7.94579 5.08629,-7.96207 16.33164,-0.26355 5.42035,3.71074 13.77065,9.34763 18.55623,12.52642 11.76237,7.81308 13.1147,10.96125 7.37083,17.15899 -3.92934,4.23983 -5.97462,3.48042 -25.10238,-9.32053 z m 22.14097,9.22728 c 1.7755,-1.17468 4.58676,-7.23469 3.35619,-7.23469 -0.59658,0 -0.84497,-0.38788 -0.55197,-0.86196 0.29299,-0.47408 -6.31795,-5.49643 -14.69099,-11.16078 -8.37303,-5.66434 -16.29689,-11.12646 -17.60856,-12.13803 -3.37129,-2.59997 -4.86045,-2.30516 -7.1261,1.41077 -3.62699,5.9487 -3.31057,6.32879 15.79614,18.97441 17.89356,11.8427 18.82376,12.33449 20.82529,11.01028 z m 272.46626,-1.82358 c -5.96953,-5.02303 -3.00798,-11.35467 13.7429,-29.38155 10.73872,-11.55675 10.68263,-11.53798 16.09538,-5.38877 5.14497,5.84499 5.11482,6.36873 -0.72942,12.66907 -2.64793,2.85458 -7.66613,8.72573 -11.15156,13.04701 -9.38545,11.63618 -12.82675,13.37132 -17.9573,9.05424 z m 8.52889,-2.18335 c 1.1581,-0.95027 5.49521,-5.77776 9.63804,-10.72776 4.14283,-4.95 8.7078,-10.09094 10.14438,-11.42431 4.23199,-3.92796 -1.44455,-14.76346 -5.82833,-11.12524 -6.80254,5.6456 -23.54369,26.94701 -23.55459,29.97081 -0.0157,4.36776 5.84656,6.38679 9.6005,3.3065 z M 424.5,213.30675 c -15.07674,-8.10711 -35.30062,-28.06348 -33.43353,-32.99128 4.06304,-10.72352 9.12279,-10.06469 22.53701,2.93453 5.81748,5.6375 11.32408,10.64773 12.23688,11.13385 4.82507,2.5696 11.15964,11.0862 11.15964,15.00373 0,4.36844 -7.36826,6.67863 -12.5,3.91917 z m 8.51331,-2.11644 c 2.89309,-2.34269 1.17533,-6.15787 -5.07255,-11.2662 -2.30338,-1.88326 -8.70485,-7.83458 -14.22549,-13.22516 -13.284,-12.97103 -14.11395,-13.39118 -18.26072,-9.2444 -5.14737,5.14736 -3.1055,8.04774 16.77424,23.82697 15.39971,12.22329 16.98997,12.98143 20.78452,9.90879 z M 296.5,204.1551 C 274.30561,190.56159 261.3986,165 276.72912,165 c 1.23311,0 22.52417,19.64116 30.02088,27.69447 6.03462,6.48267 -2.60516,16.1429 -10.25,11.46063 z m 8.42008,-3.57002 c 3.01168,-3.20579 2.2155,-5.31447 -3.97867,-10.53747 -2.75563,-2.32358 -8.89203,-8.23485 -13.63645,-13.13615 -9.31371,-9.62169 -10.02446,-9.95944 -14.40059,-6.84337 -4.5247,3.22188 -3.73001,4.72766 9.34563,17.70821 17.0906,16.9663 18.18394,17.58405 22.67008,12.80878 z m 230.39529,4.40794 C 528.80738,202.37089 529.5815,198.47846 540.88259,177 l 9.73394,-18.5 3.38099,0.27947 c 11.68327,0.96574 13.92685,7.22096 6.56862,18.31368 -2.40542,3.62624 -5.60237,9.02624 -7.10434,12 -6.92437,13.70967 -12.17153,18.30721 -18.14643,15.89987 z m 8.33075,-4.74302 c 1.40285,-1.5125 4.79779,-6.8 7.54431,-11.75 2.74653,-4.95 6.52727,-11.45509 8.40163,-14.45576 C 564.6189,165.99678 562.20645,161 553.29427,161 c -1.05277,0 -5.56213,7.94131 -16.30923,28.72175 -5.85956,11.32994 -1.08372,18.87844 6.66108,10.52825 z m -105.01884,1.7189 c -1.49758,-1.77978 -3.62295,-5.00026 -4.72305,-7.15662 -1.10009,-2.15637 -3.52791,-5.92211 -5.39514,-8.36832 C 413.23246,166.43049 412.13601,155 425.4929,155 c 4.15458,0 15.04348,15.78007 25.6707,37.20169 4.59837,9.2691 -6.00445,17.52989 -12.53632,9.76721 z m 10.74726,-5.19266 c -0.0743,-2.11467 -1.54871,-5.95828 -3.61497,-9.42375 -1.91922,-3.21887 -6.26526,-10.63382 -9.65787,-16.47767 -8.60372,-14.82013 -9.88857,-15.66764 -16.8517,-11.11568 -3.19922,2.09141 2.03507,13.54602 11.76387,25.74378 1.75341,2.19839 4.22769,6.02208 5.49839,8.49708 5.1118,9.95644 13.17568,11.69698 12.86228,2.77624 z m 10.85442,0.55447 c -5.84267,-2.35078 -11.57361,-48.45585 -6.63224,-53.356 8.59253,-8.52086 13.93131,-3.0728 14.83326,15.13691 0.39214,7.91705 1.27648,18.49294 1.96519,23.50198 1.50826,10.96965 0.95157,12.91859 -4.08991,14.31856 -4.13165,1.14732 -4.20356,1.15204 -6.0763,0.39855 z m 7.27178,-3.70759 c 1.75033,-1.27988 1.80025,-1.93156 0.70859,-9.25 C 467.56341,180.0429 466.78388,171.55 466.47704,165.5 465.38768,144.02112 465.38265,144 461.3623,144 c -7.83714,0 -8.68925,3.28448 -6.35615,24.5 2.60145,23.65573 5.77491,30.03667 12.49459,25.12312 z m 42.67357,0.0624 c -1.22186,-1.30061 -2.16967,-3.60036 -2.16372,-5.25 0.0237,-6.56673 4.11585,-28.91024 6.71383,-36.65808 L 517.5,143.5 l 4,-0.2724 c 10.96745,-0.7469 11.86967,2.46599 6.90657,24.59485 -5.99005,26.70771 -10.8981,33.66995 -18.23226,25.8631 z m 8.29582,-1.65255 c 1.94695,-2.15135 5.36367,-14.27494 8.94913,-31.75425 2.61716,-12.75884 2.28779,-13.80292 -4.71275,-14.93895 l -3.54154,-0.57471 -2.09036,6.86745 c -2.00669,6.59254 -5.28815,23.6381 -6.475,33.63428 -0.85778,7.22466 3.8179,11.24428 7.87052,6.76618 z M 484.45455,191.54545 482,189.09091 V 164.6679 c 0,-18.81573 0.29838,-24.67064 1.29961,-25.50159 2.05953,-1.70926 8.9361,-2.42676 11.99931,-1.25201 l 2.79892,1.0734 -0.29892,25.09428 -0.29892,25.09428 -2.80576,2.41187 c -3.58339,3.08033 -7.13148,3.06554 -10.23969,-0.0427 z m 8.59422,-1.38386 c 2.24098,-1.81463 2.27152,-2.14774 2.36079,-25.75 L 495.5,140.5 491.1761,140.18889 C 483.91737,139.66662 484,139.37952 484,165.12244 c 0,26.86025 1.53937,31.11989 9.04877,25.03915 z m -179.3523,-3.02328 C 308.3765,183.63057 288,159.43322 288,156.62342 c 0,-10.60678 13.02541,-10.89395 20.12209,-0.44363 2.18622,3.21934 6.49219,8.65839 9.56883,12.08678 9.93786,11.07405 11.33899,14.99154 6.67422,18.66085 -3.25576,2.56098 -6.9924,2.63484 -10.66867,0.21089 z M 323,185 c 2.79714,-2.79714 -0.33698,-9.10716 -7.42424,-14.94744 -0.96607,-0.79609 -3.81825,-4.39609 -6.33817,-8 -8.97498,-12.8357 -10.22564,-13.61639 -15.16086,-9.46367 -4.13455,3.47899 -3.98935,4.13165 2.82752,12.70996 C 312.14873,184.48242 318.62687,189.37313 323,185 Z m 8.35471,-14.25 C 312.94751,151.05585 308.89826,135 322.33863,135 326.42352,135 346,160.99745 346,166.42216 c 0,6.70329 -9.73599,9.58038 -14.64529,4.32784 z m 9.76513,-1.36481 c 3.32269,-3.18335 3.31422,-3.20993 -5.039,-15.81841 -11.19502,-16.89795 -12.79908,-18.11733 -18.05768,-13.72726 l -3.40129,2.83953 2.85783,4.91047 c 3.49608,6.00716 14.04001,20.2662 16.75642,22.66048 2.65834,2.3431 3.66774,2.21629 6.88372,-0.86481 z"
         id="path731" />
    </g>
  </g>
</svg>
